<?xml version="1.0" encoding="UTF-8" standalone="no"?>
<svg
   xmlns:dc="http://purl.org/dc/elements/1.1/"
   xmlns:cc="http://creativecommons.org/ns#"
   xmlns:rdf="http://www.w3.org/1999/02/22-rdf-syntax-ns#"
   xmlns:svg="http://www.w3.org/2000/svg"
   xmlns="http://www.w3.org/2000/svg"
   xmlns:sodipodi="http://sodipodi.sourceforge.net/DTD/sodipodi-0.dtd"
   xmlns:inkscape="http://www.inkscape.org/namespaces/inkscape"
   height="60px"
   version="1.1"
   viewBox="0 0 60 60"
   width="60px"
   id="svg3336"
   inkscape:version="0.91 r13725"
   sodipodi:docname="facebook.svg">
  <metadata
     id="metadata3349">
    <rdf:RDF>
      <cc:Work
         rdf:about="">
        <dc:format>image/svg+xml</dc:format>
        <dc:type
           rdf:resource="http://purl.org/dc/dcmitype/StillImage" />
      </cc:Work>
    </rdf:RDF>
  </metadata>
  <sodipodi:namedview
     pagecolor="#ffffff"
     bordercolor="#666666"
     borderopacity="1"
     objecttolerance="10"
     gridtolerance="10"
     guidetolerance="10"
     inkscape:pageopacity="0"
     inkscape:pageshadow="2"
     inkscape:window-width="1920"
     inkscape:window-height="1017"
     id="namedview3347"
     showgrid="false"
     inkscape:zoom="14.166667"
     inkscape:cx="20.110782"
     inkscape:cy="42.781668"
     inkscape:window-x="-8"
     inkscape:window-y="-8"
     inkscape:window-maximized="1"
     inkscape:current-layer="svg3336" />
  <title
     id="title3338" />
  <defs
     id="defs3340" />
  <g
     id="black"
     transform="matrix(0.08,0,0,0.08,0,55.2)"
     style="fill:none;fill-rule:evenodd;stroke:none;stroke-width:1">
    <g
       id="facebook">
      <path
         d="M 30,60 C 46.568543,60 60,46.568543 60,30 60,13.431457 46.568543,0 30,0 13.431457,0 0,13.431457 0,30 0,46.568543 13.431457,60 30,60 Z"
         id="Facebook"
         inkscape:connector-curvature="0"
         style="fill:#000000" />
      <path
         d="m 25.462224,47.314313 0,-17.315352 -3.518935,0 0,-5.739605 3.518935,0 0,-3.47097 c 0,-4.681744 1.399771,-8.057767 6.525878,-8.057767 l 6.098257,0 0,5.727821 -4.294104,0 c -2.150361,0 -2.640381,1.428936 -2.640381,2.925321 l 0,2.875594 6.617549,1e-6 -0.90325,5.739605 -5.714299,0 0,17.315351 -5.68965,10e-7 z"
         id="path3345"
         inkscape:connector-curvature="0"
         style="fill:#ffffff" />
    </g>
  </g>
  <g
     id="black-8"
     style="fill:none;fill-rule:evenodd;stroke:none;stroke-width:1"
     transform="matrix(0.08,0,0,0.08,0.42352943,47.364705)">
    <g
       id="youtube">
      <path
         d="M 30,60 C 46.568543,60 60,46.568543 60,30 60,13.431457 46.568543,0 30,0 13.431457,0 0,13.431457 0,30 0,46.568543 13.431457,60 30,60 Z"
         id="path3359"
         inkscape:connector-curvature="0"
         style="fill:#000000" />
      <path
         d="m 41.716569,28.846154 -23.433558,0 c -3.725397,0 -6.744549,2.748905 -6.744549,6.451253 l 0,6.459416 c 0,3.70194 3.019152,6.704716 6.744549,6.704716 l 23.433558,0 c 3.724558,0 6.74497,-3.002368 6.74497,-6.704716 l 0,-6.408397 c 0,-3.702348 -3.020412,-6.502272 -6.74497,-6.502272 z m -18.838189,5.253733 -2.259517,0 0,10.442052 -2.184244,0 0,-10.442052 -2.259082,0 0,-1.776983 6.702843,0 0,1.776983 z m 5.787811,10.88808 -1.937537,0 0,-0.987917 c -0.359835,0.365617 -0.730112,0.644087 -1.118664,0.832639 -0.386811,0.196078 -0.761439,0.28877 -1.125625,0.28877 -0.449902,0 -0.78363,-0.133492 -1.013367,-0.403644 -0.224516,-0.269756 -0.340255,-0.668646 -0.340255,-1.208158 l 0,-7.536927 1.937537,0 0,6.916211 c 0,0.213111 0.04221,0.367201 0.12009,0.461081 0.08398,0.09863 0.216684,0.143394 0.398559,0.143394 0.13967,0 0.321981,-0.06219 0.539535,-0.188552 0.220165,-0.12755 0.419009,-0.288769 0.601319,-0.484451 l 0,-6.847683 1.937538,0 0,9.015237 8.7e-4,0 z m 8.118685,-2.108929 c 0,0.636561 -0.151417,1.125766 -0.455558,1.467615 -0.301965,0.341057 -0.743165,0.756981 -1.316638,0.756981 -0.38159,0 -1.263119,-0.06377 -1.558122,-0.196079 -0.296309,-0.130322 -0.575649,-0.331946 -0.828447,-0.610416 l 0,0.690432 -1.959292,0 0,-12.466608 1.959292,0 0,4.183 c 0.262371,-0.272529 0.539535,-0.482867 0.829752,-0.625073 0.296309,-0.144979 1.137373,-0.214696 1.438468,-0.214696 0.613938,0 1.082114,-0.05783 1.404965,0.326797 0.32459,0.38463 0.485145,0.947513 0.485145,1.68548 l 0,5.002567 4.35e-4,0 z m 7.047449,-2.330359 -3.706687,0 0,1.698552 c 0,0.474152 0.06179,0.803326 0.188837,0.987521 0.129662,0.18459 0.348087,0.274113 0.657013,0.274113 0.321981,0 0.546061,-0.07803 0.674418,-0.23371 0.125747,-0.156862 0.192753,-0.497523 0.192753,-1.02832 l 0,-0.410378 1.994101,0 0,0.462665 c 0,0.923746 -0.24105,1.62012 -0.730981,2.089916 -0.482971,0.464249 -1.208296,0.696374 -2.174672,0.696374 -0.868476,0 -1.552901,-0.246385 -2.050665,-0.74272 -0.496024,-0.491582 -0.748821,-1.174884 -0.748821,-2.04357 l 0,-4.049509 c 0,-0.779163 0.274988,-1.420081 0.82453,-1.911662 0.548671,-0.491582 1.251806,-0.736779 2.121153,-0.736779 0.887621,0 1.569435,0.227768 2.045879,0.683303 0.476008,0.456723 0.714013,1.111109 0.714013,1.965534 l 0,2.29867 -8.71e-4,0 z M 40.989763,37.17772 c -0.309797,0 -0.528657,0.0812 -0.663975,0.249554 -0.136189,0.157654 -0.20015,0.429391 -0.20015,0.807683 l 0,0.91107 1.713021,0 0,-0.91107 c 0,-0.378292 -0.06918,-0.650029 -0.204501,-0.807683 -0.131402,-0.16835 -0.349827,-0.249554 -0.644395,-0.249554 z m -7.55261,0.118043 c -0.137929,0 -0.276294,0.02733 -0.411177,0.08714 -0.134884,0.05783 -0.267592,0.152506 -0.399429,0.275698 l 0,5.616153 c 0.155768,0.144979 0.310232,0.256684 0.459474,0.320856 0.149677,0.06219 0.30327,0.09705 0.467306,0.09705 0.23844,0 0.955498,-0.06377 1.067321,-0.192909 0.110082,-0.12755 0.167516,-0.331946 0.167516,-0.62032 l 0,-4.656757 c 0,-0.305802 -0.06614,-0.53555 -0.20363,-0.693205 -0.140975,-0.155278 -0.886751,-0.233709 -1.147381,-0.233709 z m 2.433608,-10.688947 c 0.394642,0 0.801026,-0.113577 1.219572,-0.332439 0.421901,-0.221765 0.825769,-0.546328 1.209926,-0.969959 l 0,1.150271 2.104474,0 0,-10.390996 -2.104474,0 0,7.888171 c -0.194595,0.225909 -0.411836,0.411196 -0.646692,0.558762 -0.237372,0.145909 -0.433644,0.218034 -0.587978,0.218034 -0.197111,0 -0.341379,-0.05472 -0.426934,-0.166634 -0.08807,-0.109431 -0.1363,-0.286843 -0.1363,-0.53099 l 0,-7.967343 -2.099861,0 0,8.684864 c 0,0.619281 0.124138,1.082291 0.36822,1.389031 0.247438,0.311298 0.611044,0.469228 1.100047,0.469228 z m -6.189284,0.111089 c 0.955359,0 1.70522,-0.253682 2.252517,-0.758972 0.542684,-0.508607 0.814865,-1.202086 0.814865,-2.09163 l 0,-5.369179 c 0,-0.790475 -0.278472,-1.442088 -0.830802,-1.944063 -0.558201,-0.500731 -1.270736,-0.752754 -2.141379,-0.752754 -0.95536,0 -1.717802,0.238345 -2.283133,0.715034 -0.565331,0.476689 -0.847996,1.115452 -0.847996,1.923337 l 0,5.386588 c 0,0.883741 0.275955,1.583023 0.827027,2.106967 0.551911,0.521871 1.288351,0.784672 2.208901,0.784672 z m -0.872321,-8.357813 c 0,-0.226324 0.08052,-0.408295 0.23905,-0.550887 0.162302,-0.139691 0.369897,-0.208085 0.626141,-0.208085 0.278892,0 0.503682,0.06839 0.67521,0.208085 0.17069,0.142592 0.256245,0.324563 0.256245,0.550887 l 0,5.66141 c 0,0.277723 -0.0843,0.497829 -0.25289,0.657417 -0.168173,0.159587 -0.393802,0.23793 -0.678984,0.23793 -0.277633,0 -0.492358,-0.07586 -0.64124,-0.235029 -0.148881,-0.156271 -0.223951,-0.374719 -0.223951,-0.660318 l 0,-5.66141 4.19e-4,0 z m -7.457924,8.095012 2.367429,0 0,-6.67282 2.755359,-8.243822 -2.406012,0 -1.465331,5.631565 -0.148881,0 -1.537466,-5.631565 -2.385043,0 2.819526,8.506208 0,6.410434 4.19e-4,0 z"
         id="path3361"
         inkscape:connector-curvature="0"
         style="fill:#ffffff" />
    </g>
  </g>
  <g
     id="black-2"
     style="fill:none;fill-rule:evenodd;stroke:none;stroke-width:1"
     transform="matrix(0.08,0,0,0.08,0.77647041,39.035294)">
    <g
       id="google+">
      <path
         d="M 30,60 C 46.568543,60 60,46.568543 60,30 60,13.431457 46.568543,0 30,0 13.431457,0 0,13.431457 0,30 0,46.568543 13.431457,60 30,60 Z"
         id="Google+"
         inkscape:connector-curvature="0"
         style="fill:#000000" />
      <path
         d="m 27.962285,27.367761 c 0.979588,-0.982715 1.065286,-2.346381 1.065286,-3.114537 0,-3.069187 -1.833443,-7.846083 -5.373344,-7.846083 -1.108761,0 -2.302594,0.554849 -2.985678,1.408704 -0.724682,0.895453 -0.938615,2.045499 -0.938615,3.154572 0,2.856505 1.663297,7.591178 5.330808,7.591178 1.066224,-3.13e-4 2.217834,-0.512313 2.901543,-1.193834 l 0,0 z m -1.237933,8.101615 c -0.34123,-0.04347 -0.554537,-0.04347 -0.980213,-0.04347 -0.384079,0 -2.687298,0.0857 -4.478204,0.683397 -0.937989,0.341229 -3.667198,1.363666 -3.667198,4.39188 0,3.027588 2.942203,5.201634 7.50548,5.201634 4.094125,0 6.268484,-1.960739 6.268484,-4.604249 0,-2.17561 -1.406828,-3.325968 -4.648349,-5.629187 l 0,0 z m 12.506417,-4.31553 -4.615384,0 0,-2.307692 4.615384,0 0,-4.615385 2.307692,0 0,4.615385 4.615385,0 0,2.307692 -4.615385,0 0,4.615385 -2.307692,0 0,-4.615385 z M 29.752566,16.53475 c 0.980213,0.810693 3.027588,2.515901 3.027588,5.757735 0,3.155823 -1.791219,4.648349 -3.581812,6.054864 -0.554224,0.554537 -1.194772,1.151922 -1.194772,2.090225 0,0.938302 0.640548,1.450302 1.108448,1.833442 l 1.536001,1.193208 c 1.876917,1.577599 3.581812,3.028527 3.581812,5.971668 0,4.007489 -3.880818,8.05939 -11.215839,8.05939 -6.182473,0 -9.167838,-2.942203 -9.167838,-6.098651 0,-1.535375 0.767844,-3.709734 3.284683,-5.202886 2.643197,-1.620761 6.226261,-1.832192 8.144151,-1.961364 -0.597073,-0.768157 -1.279219,-1.579163 -1.279219,-2.899667 0,-0.724995 0.213307,-1.152235 0.426615,-1.66361 -0.47009,0.04222 -0.93799,0.08601 -1.36523,0.08601 -4.519489,0 -7.078239,-3.370381 -7.078239,-6.695725 0,-1.960738 0.89514,-4.136974 2.728895,-5.714573 C 21.138951,15.341229 24.038305,15 26.340899,15 l 8.784385,0 -2.729208,1.534124 -2.64351,0 0,6.26e-4 z"
         id="g+"
         inkscape:connector-curvature="0"
         style="fill:#ffffff" />
    </g>
  </g>
  <g
     style="fill:none;fill-rule:evenodd;stroke:none;stroke-width:1"
     id="black-85"
     transform="matrix(0.08,0,0,0.08,1.0588233,30.847059)">
    <g
       id="reddit">
      <path
         style="fill:#000000"
         inkscape:connector-curvature="0"
         d="M 30,60 C 46.568543,60 60,46.568543 60,30 60,13.431457 46.568543,0 30,0 13.431457,0 0,13.431457 0,30 0,46.568543 13.431457,60 30,60 Z"
         id="path3437" />
      <path
         style="fill:#ffffff"
         inkscape:connector-curvature="0"
         d="m 49.608,26.794882 0,0.0033 c 0.0057,0.08183 0.0074,0.16324 0.0074,0.244236 0,0.907995 -0.28759,1.781098 -0.76759,2.521699 -0.448,0.69325 -1.065846,1.273519 -1.777231,1.666872 0.04554,0.36137 0.07221,0.725648 0.07221,1.08868 -8.2e-4,1.955137 -0.666666,3.877045 -1.826051,5.417229 l 0,8.31e-4 -0.0025,0 c -2.143589,2.886808 -5.435077,4.589401 -8.758974,5.447967 l -8.2e-4,0 -0.0025,0.0021 c -1.772308,0.435721 -3.6,0.658358 -5.427282,0.658358 -2.723692,0 -5.445333,-0.497196 -7.984821,-1.528554 l -8.2e-4,-0.0025 -0.0025,0 c -2.633025,-1.098648 -5.141743,-2.84527 -6.680205,-5.404353 -0.827897,-1.36573 -1.282051,-2.967389 -1.282051,-4.57694 0,-0.364277 0.0242,-0.728555 0.0722,-1.08951 -0.692923,-0.395015 -1.293128,-0.955346 -1.738667,-1.624089 -0.475897,-0.718586 -0.777435,-1.560122 -0.815589,-2.44984 l 0,-0.0033 0,-0.0033 0,-0.0075 c 8.2e-4,-1.246104 0.535384,-2.42658 1.366154,-3.296776 0.830769,-0.870196 1.965538,-1.438834 3.182769,-1.438834 l 0.05046,0 c 0.12759,-0.0087 0.256411,-0.01371 0.385231,-0.01371 0.611282,0 1.224205,0.100104 1.805949,0.326064 l 0.0033,0.0025 0.0033,8.3e-4 c 0.49682,0.211838 0.990359,0.467289 1.430154,0.821183 0.142769,-0.0756 0.298256,-0.160748 0.472615,-0.228037 2.666667,-1.598752 5.766154,-2.215573 8.786872,-2.393351 0.02626,-1.515262 0.210051,-3.101137 0.939897,-4.489297 0.608,-1.153061 1.66277,-2.051087 2.918975,-2.362198 l 0.0049,-0.0025 0.0066,-8.31e-4 c 0.478359,-0.09387 0.96082,-0.137071 1.44,-0.137071 1.276308,0 2.537846,0.306126 3.717744,0.783799 0.522256,-0.798337 1.268512,-1.421389 2.143589,-1.770713 l 0.0082,-0.005 0.0082,-0.0033 c 0.513641,-0.161993 1.056001,-0.256697 1.600821,-0.256697 0.574359,0 1.153231,0.106334 1.69559,0.351816 l 0,-0.0021 c 8.2e-4,0.0021 0.0016,0.0021 0.0016,0.0021 0.0041,0.0012 0.0074,0.0037 0.01026,0.0037 0.777846,0.303218 1.435898,0.86355 1.902359,1.560122 0.467282,0.69948 0.742154,1.537277 0.742154,2.39875 0,0.158671 -0.0086,0.317757 -0.02708,0.476843 l -0.0016,0.0033 c 0,0.0025 0,0.0058 -8.21e-4,0.0083 -0.09149,1.113186 -0.648205,2.090132 -1.436717,2.786704 -0.793436,0.699479 -1.820718,1.121909 -2.875077,1.121909 -0.169026,0 -0.339693,-0.0096 -0.509539,-0.0324 -1.045743,-0.081 -2.020923,-0.593145 -2.737231,-1.355346 -0.718769,-0.760954 -1.181948,-1.777775 -1.181948,-2.875177 0,-0.05317 0.0049,-0.10758 0.0066,-0.160332 -0.981744,-0.442367 -2.024205,-0.809552 -3.060103,-0.808722 -0.149743,0 -0.299487,0.0083 -0.449641,0.02368 l -0.0016,0 c -0.775795,0.0756 -1.496615,0.570716 -1.846154,1.282657 l 0,8.3e-4 0,0.0025 c -0.530461,1.045896 -0.636307,2.268324 -0.652307,3.48203 2.973538,0.196469 5.964718,0.918794 8.588307,2.445686 l 0.0041,0 0.03774,0.02243 c 0.04964,0.02991 0.141949,0.081 0.225231,0.125857 0.180103,-0.147871 0.370872,-0.300311 0.588308,-0.431567 0.795487,-0.536241 1.737846,-0.802907 2.680205,-0.802907 0.418462,0 0.837333,0.054 1.243487,0.159501 l 0.0016,0 0.01682,0.005 c 0.0057,8.31e-4 0.01026,0.0029 0.01518,0.0029 l 0,8.31e-4 c 0.96,0.247144 1.828513,0.805399 2.482462,1.558046 0.653128,0.753893 1.092923,1.707577 1.178666,2.74309 l 0,0.0025 -8.2e-4,0 z m -4.804513,5.609545 c 0,-1.347039 -0.48,-2.700308 -1.257026,-3.789818 -1.549538,-2.183174 -3.95364,-3.607056 -6.454153,-4.400824 l -0.01764,-0.0062 c -0.48,-0.149117 -0.964923,-0.281204 -1.453539,-0.394184 -1.461333,-0.336864 -2.96,-0.504673 -4.456615,-0.504673 -2.010257,0 -4.020103,0.301142 -5.944616,0.90218 -2.500102,0.803321 -4.912,2.217234 -6.458256,4.40747 l 0,0.0017 c -0.78359,1.093664 -1.242667,2.451502 -1.242667,3.803525 0,0.497611 0.06154,0.995222 0.19159,1.479541 l 0.0016,8.3e-4 c 0.281436,1.086603 0.83159,2.056903 1.544205,2.902177 0.712205,0.846935 1.585641,1.56926 2.504616,2.158667 0.203487,0.127518 0.407794,0.249221 0.617025,0.368431 2.669128,1.508202 5.742769,2.169468 8.794257,2.169468 0.516102,0 1.035077,-0.01828 1.547897,-0.05607 3.072821,-0.256698 6.158769,-1.175076 8.653128,-3.051709 l 8.21e-4,-0.0021 c 0.794256,-0.593976 1.529846,-1.313393 2.111179,-2.131668 0.584205,-0.818275 1.012103,-1.733746 1.202052,-2.727306 l 0,-0.0029 8.2e-4,-8.31e-4 c 0.07754,-0.371339 0.115282,-0.747662 0.115282,-1.125647 z M 40.849026,16.941938 c 0,0.04071 8.2e-4,0.08266 0.0049,0.125025 l 0,0.0025 0,0.005 c 0.01928,0.522948 0.262974,1.00976 0.633846,1.369468 0.372513,0.359709 0.866872,0.582346 1.368615,0.584423 l 0.0066,0 0.0066,0 c 0.0361,0.0029 0.07303,0.0029 0.108308,0.0029 0.506257,8.3e-4 1.008821,-0.220145 1.386257,-0.578608 0.378256,-0.360124 0.627282,-0.849843 0.647384,-1.37736 l 8.21e-4,-0.0025 0,-0.0033 c 0.0033,-0.04029 0.0049,-0.0785 0.0049,-0.119626 0,-0.542886 -0.250667,-1.060435 -0.643282,-1.443819 -0.390975,-0.38297 -0.917334,-0.620145 -1.436718,-0.618899 -0.167385,0 -0.333128,0.02326 -0.496,0.07435 l -0.0049,8.31e-4 -0.0049,0.0021 c -0.427898,0.112564 -0.828718,0.379646 -1.117129,0.73437 -0.289641,0.353063 -0.46523,0.789199 -0.46523,1.243197 z m -21.949539,8.069769 c -0.397538,-0.187331 -0.808615,-0.321079 -1.214769,-0.319418 -0.0681,0 -0.137026,0.0042 -0.205128,0.01163 l -0.0094,0 -0.0094,0.0012 c -0.583385,0.0162 -1.172103,0.273727 -1.613949,0.686603 -0.442256,0.411214 -0.734769,0.966561 -0.757333,1.578814 l 0,0.0058 -8.21e-4,0.005 c -0.0041,0.04943 -0.0057,0.09886 -0.0057,0.14621 0,0.377569 0.114461,0.742678 0.308513,1.074972 0.143589,0.247144 0.331897,0.473104 0.54482,0.669158 0.681846,-1.511524 1.746872,-2.794181 2.963282,-3.860015 z m 28.329436,2.031565 c -8.2e-4,-0.326895 -0.07467,-0.652543 -0.236308,-0.956177 l -0.0041,-0.0037 -0.0016,-0.005 c -0.216205,-0.451089 -0.555898,-0.791691 -0.965744,-1.023882 -0.409436,-0.233437 -0.888615,-0.352647 -1.369436,-0.352647 -0.434461,0 -0.866871,0.09844 -1.250871,0.293665 1.220512,1.072895 2.290871,2.362198 2.982974,3.879537 0.222769,-0.196054 0.412718,-0.436136 0.554667,-0.702803 0.185435,-0.34974 0.290461,-0.741847 0.290461,-1.12897 z m -9.696331,7.74314 c -0.187127,-0.106536 -0.40348,-0.171027 -0.632821,-0.171027 -0.184691,0 -0.376689,0.04632 -0.547173,0.14573 -1.614323,0.845875 -3.512785,1.309076 -5.397447,1.309076 -1.414207,0 -2.819889,-0.261887 -4.093243,-0.810958 l -0.0065,-0.0029 -0.0065,-0.0021 c -0.191998,-0.06877 -0.410786,-0.215566 -0.649464,-0.354883 -0.121368,-0.06877 -0.248014,-0.137535 -0.38846,-0.187774 -0.138823,-0.05202 -0.292665,-0.08836 -0.457466,-0.08836 -0.136387,0 -0.279675,0.02708 -0.420933,0.08338 -0.0073,0.0025 -0.01421,0.005 -0.02151,0.0075 l 8.12e-4,0 c -0.222035,0.07447 -0.395767,0.210578 -0.507393,0.371986 -0.116498,0.166396 -0.173732,0.359871 -0.173732,0.552634 0,0.173878 0.04668,0.348113 0.143694,0.505957 0.09214,0.14965 0.233807,0.280415 0.41931,0.368067 1.820121,1.077832 3.96335,1.565974 6.114698,1.564192 1.939866,0 3.891097,-0.394077 5.628818,-1.111681 l 0.0093,-0.005 0.0085,-0.0043 c 0.228936,-0.118651 0.533372,-0.225543 0.820354,-0.38125 0.14207,-0.07946 0.280487,-0.171028 0.39942,-0.290391 0.118933,-0.118651 0.214728,-0.265093 0.268715,-0.438259 l 0,-7.13e-4 c 0.02233,-0.07625 0.03328,-0.151074 0.03328,-0.225186 0,-0.141811 -0.03978,-0.276139 -0.105538,-0.396928 -0.0962,-0.181361 -0.254102,-0.330654 -0.438793,-0.436834 z M 25.384615,27.692308 c -1.274503,0 -2.307692,1.024303 -2.307692,2.307692 0,1.274503 1.024303,2.307692 2.307692,2.307692 1.274504,0 2.307693,-1.024303 2.307693,-2.307692 0,-1.274503 -1.024304,-2.307692 -2.307693,-2.307692 z m 11.538462,0 c -1.274503,0 -2.307692,1.024303 -2.307692,2.307692 0,1.274503 1.024303,2.307692 2.307692,2.307692 1.274503,0 2.307692,-1.024303 2.307692,-2.307692 0,-1.274503 -1.024303,-2.307692 -2.307692,-2.307692 z"
         id="path3439" />
    </g>
  </g>
  <g
     id="black-7"
     style="fill:none;fill-rule:evenodd;stroke:none;stroke-width:1"
     transform="matrix(0.08,0,0,0.08,1.1294119,24.635293)">
    <g
       id="steam">
      <path
         d="M 30,60 C 46.568543,60 60,46.568543 60,30 60,13.431457 46.568543,0 30,0 13.431457,0 0,13.431457 0,30 0,46.568543 13.431457,60 30,60 Z"
         id="path3477"
         inkscape:connector-curvature="0"
         style="fill:#000000" />
      <path
         d="m 42.282215,28.25351 c -1.695664,0 -3.067959,-1.452563 -3.067959,-3.24364 0,-1.791077 1.372663,-3.243249 3.067959,-3.243249 1.693822,0 3.067221,1.452172 3.067221,3.243249 0,1.791077 -1.373399,3.24364 -3.067221,3.24364 z m 2.039836,2.860952 -4.137846,3.742016 c 0.04472,0.298699 0.07549,0.602188 0.07549,0.913515 0,3.185546 -2.443077,5.768468 -5.455179,5.768468 -2.598564,0 -4.76841,-1.921952 -5.318154,-4.493553 l -10.227692,-3.6693 c -0.808616,0.648778 -1.813334,1.038481 -2.906257,1.038481 -2.658461,0 -4.813948,-2.278998 -4.813948,-5.090081 0,-2.810649 2.155487,-5.089211 4.813948,-5.089211 2.285949,0 4.195693,1.685082 4.68841,3.942745 l 9.879795,3.544769 c 0.962462,-1.031514 2.290052,-1.678116 3.760411,-1.712949 l 1.479794,-4.756549 c -0.0041,-0.09449 -0.01272,-0.187667 -0.01272,-0.283024 0,-3.594408 2.756512,-6.508251 6.156307,-6.508251 3.400616,0 6.157129,2.913843 6.157129,6.508251 0,2.846788 -1.731693,5.260767 -4.139488,6.144673 l 0,0 z M 19.379692,27.581014 C 18.804513,26.486363 17.700103,25.74484 16.43241,25.74484 c -1.862154,0 -3.371077,1.595821 -3.371077,3.563928 0,1.968107 1.508923,3.563492 3.371077,3.563492 0.343795,0 0.675282,-0.05486 0.987898,-0.156316 l -1.601641,-0.574322 c -1.290667,-0.730637 -1.776411,-2.429218 -1.085128,-3.79383 0.691692,-1.363742 2.298256,-1.876669 3.588102,-1.146031 l 1.058051,0.379253 0,0 z m 22.904733,1.97566 c 2.388451,0 4.326447,-2.047028 4.326447,-4.572143 0,-1.770973 -0.952376,-3.306424 -2.344676,-4.066264 -0.593819,-0.324074 -1.267661,-0.507061 -1.981771,-0.507061 -2.388451,0 -4.32422,2.047028 -4.32422,4.573325 0,2.525115 1.935769,4.572143 4.32422,4.572143 z m -3.866784,6.707958 c 0,-2.12573 -1.629949,-3.849129 -3.640205,-3.849129 -0.282257,0 -0.554667,0.03745 -0.818051,0.101018 l 2.034461,0.729767 c 1.290257,0.731508 1.774769,2.429654 1.083487,3.79296 -0.690871,1.365482 -2.297436,1.877974 -3.587282,1.147336 l -2.19241,-0.786807 c 0.458256,1.571437 1.842872,2.713549 3.479795,2.713549 2.010256,4.35e-4 3.640205,-1.7234 3.640205,-3.848694 l 0,0 z"
         id="path3479"
         inkscape:connector-curvature="0"
         style="fill:#ffffff" />
    </g>
  </g>
  <g
     style="fill:none;fill-rule:evenodd;stroke:none;stroke-width:1"
     id="black-0"
     transform="matrix(0.08,0,0,0.08,1.2000001,15.952941)">
    <g
       id="twitter">
      <path
         style="fill:#000000"
         inkscape:connector-curvature="0"
         d="M 30,60 C 46.568543,60 60,46.568543 60,30 60,13.431457 46.568543,0 30,0 13.431457,0 0,13.431457 0,30 0,46.568543 13.431457,60 30,60 Z"
         id="Twitter" />
      <path
         style="fill:#ffffff"
         inkscape:connector-curvature="0"
         d="m 41.052138,18.436694 c -1.208953,-1.374493 -2.931599,-2.25023 -4.838077,-2.281963 -3.660461,-0.06093 -6.628407,3.032192 -6.628407,6.908385 0,0.550125 0.05864,1.086577 0.171715,1.601557 -5.508784,-0.35732 -10.3929,-3.225902 -13.661954,-7.549951 -0.570553,1.03614 -0.897507,2.247161 -0.897507,3.544428 0,2.455838 1.170184,4.635377 2.948723,5.922267 -1.086508,-0.04797 -2.108562,-0.376879 -3.002192,-0.916465 -6.47e-4,0.02949 -6.47e-4,0.05899 -6.47e-4,0.08901 0,3.429588 2.2848,6.306746 5.317039,6.976976 -0.556177,0.1576 -1.141754,0.240078 -1.746231,0.23607 -0.427108,-0.0028 -0.842423,-0.0502 -1.247077,-0.13524 0.843392,2.81261 3.291185,4.864998 6.191769,4.93286 -2.268484,1.883068 -5.126423,3.004565 -8.232,2.998159 -0.535015,-0.0011 -1.0626,-0.03568 -1.581138,-0.102187 2.933377,2.012714 6.417438,3.184571 10.160607,3.185553 12.191793,0.0032 18.85897,-10.606642 18.85897,-19.809384 0,-0.301933 -0.0066,-0.60225 -0.01922,-0.901117 1.295054,-0.964986 2.418715,-2.174863 3.307338,-3.556433 -1.1886,0.535797 -2.466208,0.89165 -3.806815,1.040919 1.368392,-0.842173 2.419523,-2.190042 2.914315,-3.80638 -1.280838,0.776734 -2.699308,1.333755 -4.209208,1.622936 z"
         id="path3518" />
    </g>
  </g>
  <g
     style="fill:none;fill-rule:evenodd;stroke:none;stroke-width:1"
     id="black-5"
     transform="matrix(0.07999999,0,0,0.07999999,1.4823526,8.2588234)">
    <g
       id="youtube-7">
      <path
         style="fill:#000000"
         inkscape:connector-curvature="0"
         d="M 30,60 C 46.568543,60 60,46.568543 60,30 60,13.431457 46.568543,0 30,0 13.431457,0 0,13.431457 0,30 0,46.568543 13.431457,60 30,60 Z"
         id="path3556" />
      <path
         style="fill:#ffffff"
         inkscape:connector-curvature="0"
         d="m 41.716569,28.846154 -23.433558,0 c -3.725397,0 -6.744549,2.748905 -6.744549,6.451253 l 0,6.459416 c 0,3.70194 3.019152,6.704716 6.744549,6.704716 l 23.433558,0 c 3.724558,0 6.74497,-3.002368 6.74497,-6.704716 l 0,-6.408397 c 0,-3.702348 -3.020412,-6.502272 -6.74497,-6.502272 z m -18.838189,5.253733 -2.259517,0 0,10.442052 -2.184244,0 0,-10.442052 -2.259082,0 0,-1.776983 6.702843,0 0,1.776983 z m 5.787811,10.88808 -1.937537,0 0,-0.987917 c -0.359835,0.365617 -0.730112,0.644087 -1.118664,0.832639 -0.386811,0.196078 -0.761439,0.28877 -1.125625,0.28877 -0.449902,0 -0.78363,-0.133492 -1.013367,-0.403644 -0.224516,-0.269756 -0.340255,-0.668646 -0.340255,-1.208158 l 0,-7.536927 1.937537,0 0,6.916211 c 0,0.213111 0.04221,0.367201 0.12009,0.461081 0.08398,0.09863 0.216684,0.143394 0.398559,0.143394 0.13967,0 0.321981,-0.06219 0.539535,-0.188552 0.220165,-0.12755 0.419009,-0.288769 0.601319,-0.484451 l 0,-6.847683 1.937538,0 0,9.015237 8.7e-4,0 z m 8.118685,-2.108929 c 0,0.636561 -0.151417,1.125766 -0.455558,1.467615 -0.301965,0.341057 -0.743165,0.756981 -1.316638,0.756981 -0.38159,0 -1.263119,-0.06377 -1.558122,-0.196079 -0.296309,-0.130322 -0.575649,-0.331946 -0.828447,-0.610416 l 0,0.690432 -1.959292,0 0,-12.466608 1.959292,0 0,4.183 c 0.262371,-0.272529 0.539535,-0.482867 0.829752,-0.625073 0.296309,-0.144979 1.137373,-0.214696 1.438468,-0.214696 0.613938,0 1.082114,-0.05783 1.404965,0.326797 0.32459,0.38463 0.485145,0.947513 0.485145,1.68548 l 0,5.002567 4.35e-4,0 z m 7.047449,-2.330359 -3.706687,0 0,1.698552 c 0,0.474152 0.06179,0.803326 0.188837,0.987521 0.129662,0.18459 0.348087,0.274113 0.657013,0.274113 0.321981,0 0.546061,-0.07803 0.674418,-0.23371 0.125747,-0.156862 0.192753,-0.497523 0.192753,-1.02832 l 0,-0.410378 1.994101,0 0,0.462665 c 0,0.923746 -0.24105,1.62012 -0.730981,2.089916 -0.482971,0.464249 -1.208296,0.696374 -2.174672,0.696374 -0.868476,0 -1.552901,-0.246385 -2.050665,-0.74272 -0.496024,-0.491582 -0.748821,-1.174884 -0.748821,-2.04357 l 0,-4.049509 c 0,-0.779163 0.274988,-1.420081 0.82453,-1.911662 0.548671,-0.491582 1.251806,-0.736779 2.121153,-0.736779 0.887621,0 1.569435,0.227768 2.045879,0.683303 0.476008,0.456723 0.714013,1.111109 0.714013,1.965534 l 0,2.29867 -8.71e-4,0 z M 40.989763,37.17772 c -0.309797,0 -0.528657,0.0812 -0.663975,0.249554 -0.136189,0.157654 -0.20015,0.429391 -0.20015,0.807683 l 0,0.91107 1.713021,0 0,-0.91107 c 0,-0.378292 -0.06918,-0.650029 -0.204501,-0.807683 -0.131402,-0.16835 -0.349827,-0.249554 -0.644395,-0.249554 z m -7.55261,0.118043 c -0.137929,0 -0.276294,0.02733 -0.411177,0.08714 -0.134884,0.05783 -0.267592,0.152506 -0.399429,0.275698 l 0,5.616153 c 0.155768,0.144979 0.310232,0.256684 0.459474,0.320856 0.149677,0.06219 0.30327,0.09705 0.467306,0.09705 0.23844,0 0.955498,-0.06377 1.067321,-0.192909 0.110082,-0.12755 0.167516,-0.331946 0.167516,-0.62032 l 0,-4.656757 c 0,-0.305802 -0.06614,-0.53555 -0.20363,-0.693205 -0.140975,-0.155278 -0.886751,-0.233709 -1.147381,-0.233709 z m 2.433608,-10.688947 c 0.394642,0 0.801026,-0.113577 1.219572,-0.332439 0.421901,-0.221765 0.825769,-0.546328 1.209926,-0.969959 l 0,1.150271 2.104474,0 0,-10.390996 -2.104474,0 0,7.888171 c -0.194595,0.225909 -0.411836,0.411196 -0.646692,0.558762 -0.237372,0.145909 -0.433644,0.218034 -0.587978,0.218034 -0.197111,0 -0.341379,-0.05472 -0.426934,-0.166634 -0.08807,-0.109431 -0.1363,-0.286843 -0.1363,-0.53099 l 0,-7.967343 -2.099861,0 0,8.684864 c 0,0.619281 0.124138,1.082291 0.36822,1.389031 0.247438,0.311298 0.611044,0.469228 1.100047,0.469228 z m -6.189284,0.111089 c 0.955359,0 1.70522,-0.253682 2.252517,-0.758972 0.542684,-0.508607 0.814865,-1.202086 0.814865,-2.09163 l 0,-5.369179 c 0,-0.790475 -0.278472,-1.442088 -0.830802,-1.944063 -0.558201,-0.500731 -1.270736,-0.752754 -2.141379,-0.752754 -0.95536,0 -1.717802,0.238345 -2.283133,0.715034 -0.565331,0.476689 -0.847996,1.115452 -0.847996,1.923337 l 0,5.386588 c 0,0.883741 0.275955,1.583023 0.827027,2.106967 0.551911,0.521871 1.288351,0.784672 2.208901,0.784672 z m -0.872321,-8.357813 c 0,-0.226324 0.08052,-0.408295 0.23905,-0.550887 0.162302,-0.139691 0.369897,-0.208085 0.626141,-0.208085 0.278892,0 0.503682,0.06839 0.67521,0.208085 0.17069,0.142592 0.256245,0.324563 0.256245,0.550887 l 0,5.66141 c 0,0.277723 -0.0843,0.497829 -0.25289,0.657417 -0.168173,0.159587 -0.393802,0.23793 -0.678984,0.23793 -0.277633,0 -0.492358,-0.07586 -0.64124,-0.235029 -0.148881,-0.156271 -0.223951,-0.374719 -0.223951,-0.660318 l 0,-5.66141 4.19e-4,0 z m -7.457924,8.095012 2.367429,0 0,-6.67282 2.755359,-8.243822 -2.406012,0 -1.465331,5.631565 -0.148881,0 -1.537466,-5.631565 -2.385043,0 2.819526,8.506208 0,6.410434 4.19e-4,0 z"
         id="path3558" />
    </g>
  </g>
</svg>
